<?xml version="1.0" encoding="utf-8"?>
<!-- Generator: Adobe Illustrator 16.0.0, SVG Export Plug-In . SVG Version: 6.00 Build 0)  -->
<!DOCTYPE svg PUBLIC "-//W3C//DTD SVG 1.1//EN" "http://www.w3.org/Graphics/SVG/1.1/DTD/svg11.dtd">
<svg version="1.1" id="Calque_1" xmlns="http://www.w3.org/2000/svg" xmlns:xlink="http://www.w3.org/1999/xlink" x="0px" y="0px"
	 width="521px" height="242px" viewBox="39.14 139.445 521 242" enable-background="new 39.14 139.445 521 242"
	 xml:space="preserve">
<g>
	<path d="M227.857,240.514c12.035,0,17.751,1.204,23.77,4.513c6.619,3.61,9.628,10.38,9.628,16.698
		c0,11.583-10.531,21.061-21.362,24.521v0.752c12.787,2.407,20.008,10.982,20.008,20.911c0,17.15-16.548,30.689-39.865,30.689
		c-4.063,0-14.593-0.15-17.451-0.15c-4.514,0-10.682,0-16.397,0c0.301-1.805,0.603-3.61,1.053-5.265l10.982-0.301
		c0.602,0,1.053-0.301,1.204-1.204l14.292-85.297l-12.035-0.301c0.301-1.805,0.603-3.61,1.053-5.265
		C209.053,240.664,220.636,240.514,227.857,240.514z M207.548,327.165c-0.902,4.814,1.504,6.018,13.689,6.018
		c15.495,0,30.237-8.274,30.237-23.769c0-7.221-3.761-19.406-27.229-19.406c-5.867,0-9.026,0-10.531,0.301L207.548,327.165z
		 M214.92,284.291c1.053,0.301,3.761,0.452,8.575,0.452c14.292,0,29.484-8.124,29.484-21.663c0-8.875-5.416-17.15-22.415-17.15
		c-5.416,0-7.973,0.301-9.327,0.602L214.92,284.291z"/>
	<path d="M312.396,319.493c-14.292,16.247-24.22,20.76-28.884,20.76c-3.159-0.602-7.522-3.31-9.628-7.221
		c-0.903-1.504-1.204-3.31-1.204-5.416c0-5.867,1.805-15.194,4.814-23.468c4.664-12.486,15.043-29.486,28.732-29.486
		c5.564,0,10.53,3.009,14.442,7.672h0.901l3.159-7.973c1.955,0.451,3.761,1.053,5.565,1.655
		c-3.911,13.389-10.831,40.768-14.291,57.316c-0.15,0.451,0.149,0.752,0.602,0.752c1.203,0,5.566-1.053,10.982-2.858
		c0.45,1.504,0.901,3.008,1.202,4.663c-6.168,2.407-13.088,3.761-16.698,3.761c-0.451,0-2.857-1.655-3.609-3.31
		c0.752-2.708,2.707-9.478,4.663-16.548L312.396,319.493z M285.918,300.688c-3.46,8.274-5.716,18.053-5.716,25.875
		c0,4.814,2.557,7.07,5.265,7.07c7.973,0,26.326-17.751,29.335-25.875c1.053-2.858,3.76-14.141,4.663-18.203
		c-3.61-5.717-8.876-8.575-14.442-8.575C296.75,280.981,289.83,291.512,285.918,300.688z"/>
	<path d="M348.795,242.018c-0.302-1.655-0.451-3.31-0.451-4.814c11.885-1.504,19.406-4.062,20.309-4.062
		c1.054,0,2.257,1.204,3.311,2.407c-7.974,32.645-19.707,80.784-23.469,97.483c-0.149,0.602,0,1.053,0.603,1.053
		c2.105,0,7.371-0.902,13.238-2.557c0.45,1.805,0.602,3.31,0.752,4.964c-7.07,2.407-14.894,3.31-18.354,3.31
		c-0.602,0-3.009-1.956-4.063-3.912c3.762-15.344,17.752-74.917,22.564-94.625L348.795,242.018z"/>
	<path d="M377.224,283.087c-0.15-1.655-0.301-3.159-0.301-4.664c11.732-1.806,17.601-3.761,18.504-3.761
		c0.752,0,2.557,2.106,3.158,3.159c-3.762,15.194-11.583,47.538-13.539,55.511c-0.15,0.451,0,0.902,0.45,0.902
		c2.258,0,6.619-1.053,11.886-2.557c0.602,1.504,1.053,3.009,1.203,4.664c-6.018,2.106-12.637,3.46-16.247,3.46
		c-0.603,0-3.911-2.106-4.813-4.212c3.61-14.893,8.575-35.052,12.787-53.555L377.224,283.087z M403.55,253.15
		c0,2.557-3.01,6.318-6.318,6.318c-3.46,0-6.469-3.009-6.469-6.168c0-2.708,2.558-6.469,7.069-6.469
		C401.594,246.832,403.55,250.593,403.55,253.15z"/>
	<path d="M448.526,283.689c0-0.752-0.301-1.354-0.903-1.655c-1.653-1.204-4.361-2.106-8.272-2.106c-2.407,0-6.019,0.451-9.026,1.956
		c-3.009,1.655-6.317,5.115-6.317,10.229c0,6.318,3.31,8.124,10.229,11.283c9.929,4.513,15.646,8.726,15.646,17.15
		c0,6.619-3.46,12.486-9.93,16.097c-4.361,2.557-9.326,3.31-17.449,3.31c-5.416,0-11.283-1.354-13.238-2.558
		c0.301-5.716,0.602-11.583,0.901-17.451c1.654-0.301,3.762-0.301,5.266-0.301l0.903,11.433c0,0.752,0.45,1.354,1.053,1.655
		c1.806,1.204,5.266,1.956,9.327,1.956c3.609,0,7.973-0.752,10.681-2.407c3.46-2.407,5.266-5.416,5.266-10.38
		c0-7.071-4.664-9.327-11.282-12.486c-8.425-3.761-14.441-7.07-14.441-16.247c0-7.071,5.416-12.938,10.53-15.495
		c4.664-2.407,9.777-3.009,15.193-3.009c4.965,0,10.53,1.504,13.088,3.159c-0.45,5.416-1.053,10.981-1.654,16.097
		c-1.504,0.15-3.46,0.15-5.114,0.15L448.526,283.689z"/>
	<path d="M477.856,286.547c6.921-8.274,13.39-11.885,21.063-11.885c9.478,0,14.742,7.823,14.894,15.194
		c-0.753,4.362-3.611,10.53-7.974,12.938c-8.575,4.362-18.955,5.566-31.593,5.566c-1.354,4.212-2.405,10.23-2.405,13.54
		c0,7.672,3.761,11.884,10.681,11.884c6.168,0,15.646-4.062,23.618-8.725c0.752,1.354,1.505,2.858,2.105,4.362
		c-7.974,5.266-18.805,10.531-27.831,10.531c-7.221,0-16.247-5.265-16.247-16.397C464.166,314.979,468.077,298.281,477.856,286.547z
		 M483.724,288.052c-2.559,3.31-5.566,7.973-7.973,15.194c8.875,0.15,17.751-1.204,23.468-4.062c3.761-1.806,6.77-4.363,6.77-8.726
		c0-5.115-2.708-9.778-9.025-9.778C491.396,280.68,487.032,283.839,483.724,288.052z"/>
</g>
<g>
	<path fill="#0D0E11" d="M144.64,359.666c-3.77,0.662-7.385,0.482-10.999-1.113c-2.49-1.101-5.367-0.745-8.049-0.801
		c-1.824-0.04-2.666-0.731-3.186-2.185c-1.139-3.179-2.926-3.868-6.039-2.258c-0.118,0.061-0.327,0.186-0.351,0.159
		c-1.544-1.826-4.646-0.305-5.939-2.837c-0.513-1.001-1.622-1.487-2.885-1.242c-3.654,0.708-7.264,0.29-10.854-0.491
		c-0.115-1.807-1.133-2.013-2.583-1.457c-2.093-1.817-2.127-2.503,0.03-4.189c1.014-0.792,1.385-1.867,1.657-2.975
		c0.44-1.788,1.349-3.368,2.018-5.052c0.421-1.061,1.157-1.659,2.335-1.572c1.128,0.083,1.537,0.89,1.897,1.827
		c0.643,1.666,0.411,3.616,1.899,5.196c0.311-3.159,0.993-6.124,3.434-8.304c0.43-0.311,0.843-0.644,1.262-0.969
		c0.968-0.362,1.003-1.285,1.351-2.075c0.683-1.551,1.247-3.336,3.45-3.382c0.53,0.347,0.575,0.984,1.046,1.741
		c0.444-2.598,1.537-4.769,1.869-7.197c0.241-1.768,0.567-3.595,2.116-4.84c0.707-0.208,1.331-0.088,1.843,0.464
		c0.123,0.184,0.192,0.389,0.213,0.61c0.039,0.549-0.222,1.409,0.53,1.471c2.977,0.243,5.943,1.037,8.951,0.303
		c0.822-4.022,0.783-4.084-3.152-4.549c-1.851-0.219-3.738-0.097-5.562-0.609c-0.974-0.91-0.714-1.638,0.332-2.249
		c2.52-0.215,5.034,0.055,7.546,0.168c0.896,0.04,1.528-0.082,2.026-0.806c1.136-0.645,2.253-0.222,3.37,0.063
		c0.257,0.145,0.626,0.418,0.53,0.619c-0.828,1.724,0.9,3.42,0.024,5.129c-0.097,0.189-0.103,0.444-0.005,0.636
		c0.424,0.832,1.106,1.694,0.359,2.595c-0.763,0.92-1.882,0.28-2.705,0.49c2.036-0.061,4.216,0.347,6.358-0.346
		c1.211-0.2,2.397-0.109,3.563,0.262c0.339-0.097,0.886,0.861,1.042-0.25c0.116-0.833,0.254-1.693,0.895-2.345
		c1.045-0.453,2.123-0.663,3.259-0.459c0.186,1.897,0.371,3.794,0.557,5.691c0.771,1.06,0.741,2.31,0.83,3.528
		c0.113,1.569-0.023,3.216,1.777,4.081c0.354,0.169,0.474,0.705,0.621,1.116c0.215,0.996,0.803,2.054-0.451,2.813
		c-0.313,0.128-0.643,0.166-0.979,0.143c-1.313-0.347-3.061,0.162-3.574-1.853c-0.315,1.074-0.516,2.182-1.882,2.322
		c-0.808,0.004-1.49-0.257-1.978-0.93c-0.472-1.532-1.292-2.152-2.803-1.113c-0.349,0.239-0.777,0.339-1.2,0.42
		c-2.871,0.549-5.78,0.948-8.416,2.333c-0.218,0.009-0.437-0.012-0.649-0.056c-0.354-0.08-0.786-0.139-1.005-0.394
		c-1.977-2.302-4.775-1.748-7.291-2.083c-1.011-0.135-2.243-0.079-1.953,1.589c2.856,0.364,5.669,0.926,8.509,1.328
		c1.138,0.106,2.262,0.369,3.415,0.251c3.967,0.859,8.04,0.663,12.036,1.226c0.92-0.023,1.835-0.136,2.754-0.166
		c3.193,0.261,6.347-0.615,9.54-0.354c1.211,0.174,2.28-0.442,3.429-0.622c0.411-0.082,0.815-0.226,1.246-0.168
		c0.213,0.057,0.518,0.19,0.493,0.349c-0.313,2.122,0.33,4.303-0.036,6.318c-0.267,1.47,0.214,2.001,1.103,2.683
		c0.05,2.43-0.268,4.744-2.024,6.627c-0.051,0.055,0.147,0.343,0.229,0.522c-1.813,1.037-2.826,2.444-2.144,4.635
		c-0.903,0.917-2.148,0.739-3.114,0.531c-0.906-0.196-1.089,0.468-1.623,0.658c-0.973,0.978-2.147,1.226-3.371,0.681
		c-1.614-0.719-3.331,0.565-4.947-0.34C144.475,358.527,144.921,359.304,144.64,359.666z"/>
	<path fill="#17181B" d="M107.463,332.623c-2.016,2.152-3.235,4.608-2.941,7.651c0.058,0.587,0.115,1.226-0.708,1.351
		c-0.78,0.118-1.248-0.26-1.437-1.009c-0.424-1.686-0.9-3.362-1.251-5.064c-0.188-0.911-0.501-1.493-1.532-1.465
		c-0.942,0.025-1.286,0.52-1.665,1.378c-0.996,2.257-1.822,4.563-2.557,6.911c-0.149,0.477-0.313,0.931-0.804,1.244
		c-2.279,1.451-2.271,1.467-0.483,3.648c0.064,0.689-0.127,1.128-0.938,0.966c-2.178,0.427-4.26-0.54-6.446-0.431
		c-1.069,0.053-2.02,1.457-3.165,0.311c-1.654-0.225-3.263-0.678-4.9-0.982c-0.884-0.16-1.241-0.416-0.598-1.373
		c1.082-1.61,1.271-3.578,1.863-5.387c0.612-1.63,1.301-2.612,3.348-1.46c1.467,0.825,2.594-0.105,2.414-1.839
		c-0.21-2.025,0.378-3.7,1.485-5.338c1.129-1.671,2.034-3.437,0.576-5.447c-0.363-0.5,0.086-0.77,0.546-0.914
		c1.098-0.005,1.994,0.592,2.961,0.979c0.365,0.184,0.732,0.366,1.11,0.526c1.756,0.833,3.617,1.405,5.411,2.143
		c1.318,0.642,2.732,0.997,4.14,1.377c1.344,0.341,2.697,0.644,4.018,1.053C106.531,331.646,107.458,331.561,107.463,332.623z"/>
	<path fill="#101114" d="M147.734,169.141c-0.298-2.904-1.134-5.742-1.065-8.692c1.242-1.13,2.999-0.329,4.325-1.155
		c0.353-0.042,0.69,0.006,1.019,0.142c2.346,1.269,5,0.755,7.472,1.293c0.502,0.015,1.186-0.136,1.419,0.313
		c0.322,0.62-0.383,0.995-0.724,1.422c-3.037,3.804-6.07,7.611-9.135,11.391c-0.749,0.924-1.29,1.917-1.542,3.074
		c-0.146,3.313,0.449,3.879,3.386,3.222c0.75,0.692,1.702,0.046,2.485,0.367c0.726,0.295,1.607,0.182,2.229,0.873
		c-2.772,4.181-6.224,7.833-9.325,11.756c-1.322,1.673-2.146,3.429-2.425,5.486c-0.467,3.443-0.91,6.888-1.361,10.332
		c-0.232,0.379-0.594,0.592-0.997,0.728c-0.536,0.181-1.174,0.401-1.538-0.152c-0.431-0.651,0.436-0.905,0.627-1.383
		c-0.028-3.563,1.216-6.927,1.655-10.429c0.424-3.365,0.38-6.593-0.45-9.845c-0.805-2.097-0.102-4.414-0.952-6.503
		c-0.146-0.911-0.296-1.821,0.3-2.647c2.96,1.426,4.068,0.807,4.719-2.556C148.313,173.816,148.242,171.479,147.734,169.141z"/>
	<path fill="#B07F0C" d="M147.538,316.849c-0.946,0.96-2.25,0.406-3.333,0.785c-0.219,0.137-0.422,0.119-0.612-0.058
		c-0.193-0.294-0.253-0.622-0.238-0.967c0.171-1.969-0.037-3.894-0.688-5.765c0.994-0.577-0.297-0.795-0.2-1.234
		c-0.16-1.607,0.229-3.2,0.13-4.8c-0.057-0.911,0.2-1.934-0.689-2.634c-2.125-0.657-4.322-0.421-6.485-0.571
		c-2.903-0.203-5.804-0.438-8.712-0.573c-1.8-0.083-2.874,0.648-3.195,2.508c-0.247,1.429-0.773,2.807-0.837,4.273
		c-0.137,0.627-0.042,1.074,0.726,1.203c0.454,0.076,1.032,0.166,0.875,0.898c-0.65,0.688-1.674,0.384-2.388,0.901
		c-0.224,0.167-0.443,0.343-0.687,0.484c-0.347,0.536-0.542,1.102-0.337,1.744c0.352,1.311,0.403,2.522-1.075,3.222
		c-0.534-0.121-1.067-0.242-1.602-0.363c-0.198-0.132-0.316-0.317-0.355-0.552c0.269-3.122,1.273-6.106,2.025-9.108
		c1.024-4.083,2.207-8.129,2.937-12.281c0.328-1.866,0.481-3.767,1.136-5.558c0.384-1.053-0.01-2.005-0.205-2.995
		c-0.042-0.35-0.023-0.695,0.04-1.041c0.209-0.663,0.288-1.424,1.166-1.598c1.544,0.884,1.979,2.456,2.481,3.989
		c-0.063,1.43,0.761,1.834,2.034,1.849c2.583,0.031,5.151,0.305,7.727,0.503c1.424,0.226,2.846,0.217,4.262-0.044
		c0.634-0.646,0.245-1.549,0.583-2.269c0.522-1.115,1.403-1.3,2.163-0.335c0.822,1.043,1.151,2.291,1.254,3.626
		c0.251,3.243,0.37,6.499,0.787,9.729C146.917,305.474,147.21,311.163,147.538,316.849z"/>
	<path fill="#141316" d="M88.629,316.374c0.106-0.49,0.121-1.027,0.339-1.46c0.637-1.259,1.145-2.834,2.945-2.686
		c1.669,0.136,2.932,1.008,3.334,2.783c0.268,0.453,0.129,0.985,0.272,1.452c0.524,1.695,2.341,1.92,3.744,0.48
		c1.829-2.93,2.844-6.243,4.366-9.316c0.767-0.843,1.701-0.313,2.572-0.318c0.734,0.247,1.305,0.657,1.453,1.48
		c-0.606,1.704,0.77,1.23,1.555,1.403c1.302,0.125,2.628,0.146,3.68,1.107c1.048,0.958,1.124,1.686-0.447,2.067
		c-0.454,0.036-0.882-0.063-1.29-0.256c-1.803-0.826-3.805-0.107-5.648-0.703c-0.212-0.069,0.07,0.105,0.086,0.19
		c0.106,0.55-0.257,0.94-0.423,1.398c-0.359,0.932-0.741,1.854-1.183,2.752c-0.177,0.576-0.765,1.165-0.02,1.725
		c1.616,1.214,1.126,2.738,0.672,4.267c-1.053,0.49-2.22,0.376-3.325,0.599c-0.812,0.165-1.402-0.186-1.307-1.169
		c-0.112-0.345,0.407-0.738-0.088-1.032c-0.407,1.041-1.038,1.755-2.249,1.69c-0.905,0.045-1.393-0.6-1.933-1.159
		c-0.146-0.11-0.294-0.223-0.447-0.323c-0.695-0.32-1.477-0.122-2.184-0.36c-1.265-0.256-2.458-1.169-3.834-0.413
		c-0.875,0.156-1.229-0.635-1.825-0.994C85.516,317.657,88.056,317.378,88.629,316.374z"/>
	<path fill="#9F7117" d="M146.224,299.816c-0.836-2.826-0.698-5.764-0.879-8.651c-0.102-1.615-0.753-2.912-1.448-4.252
		c-0.19-0.369-0.41-0.88-0.957-0.676c-0.446,0.167-0.532,0.636-0.563,1.099c-0.062,0.945,0.58,2.099-0.761,2.681
		c-0.877-2.519-0.387-5.126-0.394-7.686c-0.002-1.074,0.823-1.229,2.538-0.724c-1.773-0.877-3.841-0.086-5.522-1.158
		c-0.43-0.378-1.042-0.775-0.841-1.383c0.232-0.706,1.02-0.708,1.663-0.763c1.422-0.12,2.855,0.599,4.271-0.056
		c0.399-0.155,0.81-0.219,1.228-0.112c0.61,0.297,0.941,0.329,0.439-0.462c-0.111-0.174-0.179-0.373-0.243-0.572
		c-0.079-0.299-0.091-0.599-0.035-0.902c0.078-0.306,0.245-0.556,0.486-0.757c0.68-0.395,1.003-0.919,0.612-1.701
		c-0.099-0.295-0.158-0.597-0.184-0.907c0.127-1.482,0.299-2.967-0.424-4.372c0.047-0.25,0.181-0.434,0.401-0.558
		c2.093-0.202,4.188-0.503,6.227,0.316c-0.575,2.524-1.497,4.984-1.52,7.611c-0.006,0.667-0.186,1.7,0.863,1.708
		c2.291,0.017,1.967,1.851,1.906,3.018c-0.082,1.583-1.624,1.816-2.957,1.976c-1.705,0.205-3.286-0.501-5.247-0.755
		C145.335,287.847,145.779,293.832,146.224,299.816z"/>
	<path fill="#787D82" d="M88.629,316.374c0.23,0.852-0.565,0.807-0.958,1.146c-0.768,0.664-0.921,1.304,0.302,1.647
		c0.525,0.552,0.276,1.302,0.537,2.067c0.005-0.68,0.69-0.552,0.852-0.979c0.058-0.611,0.292-0.89,0.97-0.663
		c1,0.335,2.022,0.601,3.035,0.897c0.401,1.417,1.569,0.286,2.277,0.685v0.002c1.856,1.784,3.688,3.574,3.348,6.498
		c-0.106,0.912,0.114,2.044-1.437,1.748c-1.85-0.723-3.7-1.444-5.55-2.167c0.362-0.719,1.081-0.512,1.705-0.648
		c-0.895-0.366-1.707-0.164-2.505,0.203c-0.909-0.375-1.818-0.752-2.729-1.128c-1.726-0.309-3.053-1.318-4.311-2.451
		c-0.494-0.476-1.096-0.865-1.31-1.574C83.132,318.091,86.214,317.597,88.629,316.374z"/>
	<path fill="#878C8F" d="M150.952,331.53c-0.691-0.321-0.265-2.05-1.875-1.346c-0.633,0.276-0.513-0.675-0.547-1.121
		c-0.163-2.173-0.293-4.349-0.436-6.523c1.854,0.717,3.586,1.671,5.495,2.344c3.372,1.186,6.874,2.823,9.344,5.567
		c1.183,1.312,1.24,3.477-0.267,5.113c-0.906,0.101-1.738,0.533-2.654,0.59c-0.247,0.038-0.533,0.02-0.545,0.388
		c-1.425-0.947-0.823-2.61-1.344-3.881c-0.148-0.362,0.103-0.85,0.058-1.289c-0.153-1.498-0.749-2.688-2.369-2.965
		c-1.584-0.271-2.398,0.7-2.903,2.039c-0.18,0.474-0.299,0.975-0.575,1.405C151.587,333.012,151.274,332.236,150.952,331.53z"/>
	<path fill="#22282C" d="M84.338,322.768c1.38,0.971,2.761,1.942,4.141,2.913c-0.136,0.047-0.272,0.094-0.41,0.141
		c2.019,2.191,0.887,4.285-0.403,6.169c-1.132,1.652-1.722,3.257-1.417,5.277c0.272,1.814-1.994,3.613-3.118,2.456
		c-1.881-1.938-2.248,0.134-3.229,0.647c-0.017-0.999-0.032-1.999-0.05-2.999c1.793-0.361,2.556-1.426,2.703-3.281
		c0.15-1.878-0.047-3.717-0.114-5.577c0.102-1.354,0.307-2.69,0.623-4.005C83.242,323.771,83.324,322.915,84.338,322.768z"/>
	<path fill="#AD8023" d="M122.47,237.914c0.207-3.559,2.757-3.798,5.49-4.053c4.009-0.375,4.264-0.97,4.765-4.938
		c0.371-2.935,0.071-6.098,2.034-8.685c0.698-0.128,1.086-1.995,2.1-0.375c-0.018,3.552-1.262,6.948-1.347,10.495
		c-0.017,0.719-0.15,1.436-0.104,2.157c0.693,1.527-1.108,2.385-1.004,3.753c0.604,0.984,1.474,0.283,2.224,0.347
		c0.536-0.007,1.075,0.097,1.125,0.713c0.054,0.656-0.571,0.731-1.029,0.849c-0.69,0.178-1.408,0.187-2.118,0.212
		c-0.322,0.011-0.645-0.02-0.961-0.075c-1.229-0.287-2.464-0.615-3.667,0.118c-1.167,0.074-2.042-0.757-3.11-0.989
		c-0.754-0.095-1.531-1.145-2.239,0.076c-0.08,0.188-0.172,0.366-0.272,0.543C123.655,238.918,122.969,239.565,122.47,237.914z"/>
	<path fill="#BD8B22" d="M106.091,307.674c-0.82-0.013-1.641-0.027-2.46-0.043c0.152-3.018,1.796-5.615,3.064-8.096
		c2.082-4.07,3.463-8.393,5.405-12.492c0.833-1.756,1.45-3.615,2.166-5.428c0.244-1.363,0.525-2.713,1.498-3.789
		c0.548-0.023,0.738,0.357,0.887,0.784c0.458,2.079-1.218,3.777-1.033,5.808c0.023,0.208,0.019,0.416-0.01,0.623
		C112.6,292.651,109.04,300.034,106.091,307.674z"/>
	<path fill="#A87D28" d="M145.137,211.148c-0.264,1.597,0.41,2.69,1.61,3.75c2.011,1.775,3.837,3.759,5.741,5.655
		c1.402,1.396,1.797,3.008,1.424,4.981c-0.711,3.767-1.142,7.59-1.93,11.339c-0.2,0.957,1.318,2.129-0.361,2.829
		c-0.405,0.114-0.479,0.671-0.939,0.712c-0.838,0.649-0.45,1.58-0.565,2.395c-0.105,0.737,0.055,1.718-1.232,1.501
		c-0.998-0.893-0.688-2.133-0.875-3.24c-0.042-0.556-0.051-1.111,0.087-1.656c0.383-0.542-0.017-1.466,0.85-1.785
		c0.263-0.148,0.54-0.26,0.837-0.321c0.48-0.142,0.747,0.257,1.191,0.518c-0.412-0.447-0.43-0.882-0.356-1.338
		c0.826-3.982,0.762-8.087,1.706-12.053c0.218-0.914-0.15-1.7-0.709-2.427c-1.969-2.554-4.572-4.472-6.774-6.791
		c-0.423-0.445-0.985-0.598-1.597-0.559c-0.74,0.047-1.465,0.033-2.012-0.588c0.178-0.966,0.737-1.833,0.738-2.846
		C142.999,210.088,144.063,210.385,145.137,211.148z"/>
	<path fill="#A7A19C" d="M122.47,237.914c0.799,1.404,1.209,0.23,1.722-0.26c1.519,0.308,2.647,1.933,4.441,1.305
		c0.956,0.782,2.108,1.009,3.291,1.151c0.682,0.987,2.222,1.193,2.405,2.637c-0.954,0.87-0.391,2.757-2.091,3.129
		c-0.253-2.053-1.625-2.965-3.448-3.513c-0.896-0.27-1.786-0.584-2.664-0.923c-3.069-1.183-3.046-1.17-3.949,2.113
		c-0.436,1.585-0.597,3.283-1.692,4.624c-0.39-0.108-0.787-0.269-1.183,0c-0.348-1.019,0.267-1.844,0.617-2.684
		c0.981-2.352,1.633-4.78,2.009-7.294C121.944,238.079,122.281,238.008,122.47,237.914z"/>
	<path fill="#AB7F2A" d="M151.838,268.22c-2.161,0.434-4.326-0.077-6.489,0.026c-0.453,0.111-0.576-0.086-0.469-0.5
		c0.413-0.405,0.948-0.473,1.48-0.546c0.202-0.034,0.407-0.052,0.611-0.07c0.51-0.045,0.969-0.21,1.344-0.579
		c1.561-3.044,0.861-6.384,1.268-9.576c0.134-1.057-0.152-2.21,0.874-3.001c1.145-0.43,2.213-0.649,2.606,0.958
		c-2.488,3.078-1.568,6.78-1.92,10.258C151.028,266.328,152.756,266.958,151.838,268.22z"/>
	<path fill="#1A1A1F" d="M160.013,336.153c0.903-0.114,1.442-1.862,2.654-0.59c-0.729,3.205-0.828,6.478-1.037,9.739
		c-2.059,0.077-2.997-0.509-1.521-2.548c0.122-0.169,0.273-0.464,0.207-0.599C159.339,340.192,160.184,338.147,160.013,336.153z"/>
	<path fill="#AD8635" d="M119.301,248.176c0.185-0.171,0.37-0.342,0.556-0.513c0.081,0.212,0.163,0.423,0.244,0.635
		c0.6,0.691,0.197,1.407-0.039,2.047c-0.779,2.112-0.838,4.43-1.863,6.467c-0.806,1.011-0.893,2.283-1.249,3.458
		c-0.521,1.131-0.594,2.448-1.424,3.453c-0.444,0.4-0.749,1.118-1.562,0.715c-0.48-1.778,0.754-3.213,1.271-4.658
		C116.62,255.923,117.727,251.964,119.301,248.176z"/>
	<path fill="#25282D" d="M144.64,359.666c-0.278-0.548-1.07-0.813-0.859-1.765c1.009,0.206,2.348,0.919,2.967,0.52
		c1.64-1.06,2.78,0.346,4.139,0.333c0.69-0.007,1.378-0.311,2.067-0.479c-0.023,0.766-0.05,1.522,1.114,1.141
		c0.877-0.287,1.726-0.764,2.929-0.413c-0.644,1.132-1.157,1.745-2.733,1.501C151.088,360.015,147.851,359.923,144.64,359.666z"/>
	<path fill="#5A6268" d="M84.338,322.768c-1.193,1.814-0.969,3.946-1.334,5.947c-0.402,2.051-0.357,4.179-0.979,6.183
		c-0.18,0.58-0.033,2.159-1.523,1.052c0.81-1.678-0.063-3.462,0.366-5.192c0.747-3.014,1.336-6.066,1.99-9.102
		C83.472,321.869,83.942,322.269,84.338,322.768z"/>
	<path fill="#BA9243" d="M111.692,276.376c-2.555-2.4-2.549-2.396-0.199-5.582c0.536-0.727,0.341-1.85,1.257-2.384
		c0.638,0.311,0.658,1.01,0.968,1.527c0.247,0.644,0.874,1.138,0.771,1.921c-0.635,0.647-1.771,0.059-2.305,0.942
		c-0.623,1.376,0.631,1.525,1.332,1.95c1.103,0.667,1.954,1.318,0.738,2.607C113.165,277.64,112.365,277.172,111.692,276.376z"/>
	<path fill="#AD8126" d="M150.885,240.135c0.307-0.04,0.08-0.989,0.737-0.433c1.038,0.288,1.016,1.13,0.897,1.91
		c-0.397,2.625,0.18,5.325-0.627,7.919c-0.104,0.331-0.016,0.721-0.016,1.084c-0.361,1.074,1.182,2.322-0.305,3.293
		c-0.494,0.077-0.863-0.099-1.101-0.546c-0.153-0.322-0.233-0.663-0.282-1.014c-0.07-0.717-0.132-1.435-0.127-2.156
		C150.382,246.843,150.313,243.464,150.885,240.135z"/>
	<path fill="#2D2F36" d="M147.734,169.141c1.17,3.187,0.722,6.332-0.228,9.468c-0.345,1.14-0.979,1.634-2.276,1.788
		c-1.509,0.178-1.507-0.991-2.095-1.663c-0.268-1.998,1.177-1.333,1.938-1.058c1.935,0.698,2.406-0.173,2.708-1.875
		C148.178,173.555,147.681,171.358,147.734,169.141z"/>
	<path fill="#C69945" d="M142.071,211.282c0.2,1.087-0.375,1.99-0.703,2.951c-1.011,2.361-2.62,4.183-4.881,5.419
		c-0.805-0.479-1.005,0.823-1.728,0.586c1.318-2.862,3.209-5.223,6.025-6.732c1.124-0.601,0.614-1.831,1.152-2.641
		c0.138,0.058,0.202,0.139,0.196,0.243C142.127,211.222,142.106,211.279,142.071,211.282z"/>
	<path fill="#3F474B" d="M80.502,335.95c1.489,0.343,0.959-1,1.078-1.508c0.444-1.917,0.484-3.929,1.423-5.727
		c0.273,2.367,0.275,4.717-0.131,7.082c-0.337,1.954-1.69,1.679-3.021,1.577C79.923,336.833,80.085,336.333,80.502,335.95z"/>
	<path fill="#E3E9E8" d="M111.692,276.376c0.874,0.285,1.747,0.57,2.62,0.856c0.658-0.061,1.174,0.177,1.54,0.732
		c0.043,1.464-0.999,2.458-1.585,3.649C113.167,280.781,111.786,277.972,111.692,276.376z"/>
	<path fill="#35363F" d="M150.938,159.649c-1.201,1.457-2.886,0.32-4.27,0.799c-0.048-0.429-0.065-0.864-0.149-1.286
		c-0.318-1.603,0.205-2.146,1.811-1.564c0.937,0.339,1.922,0.545,2.886,0.812C151.595,158.929,150.231,159.058,150.938,159.649z"/>
	<path fill="#88611A" d="M150.826,253.363c0.26,0.324,0.603,0.352,0.974,0.271c0.837-0.539,1.654-0.956,2.205,0.342
		c0.023,0.651-0.688,0.578-0.941,0.955c-0.665-1.046-1.664-0.75-2.613-0.652c-0.645-0.019-1.01,0.623-1.619,0.686
		c-0.627-0.022-1.154-0.351-1.723-0.555c-0.602-0.237-1.236-0.139-1.858-0.189c-1.052-0.115-2.117-0.167-3.139-0.431
		c-0.602-0.156-1.522-0.047-1.419-1.137c0.718-0.644,1.581-0.572,2.444-0.516c1.063,0.203,2.148,0.102,3.216,0.236
		C147.812,252.846,149.447,252.527,150.826,253.363z"/>
	<path fill="#5C4D36" d="M142.071,211.282c-0.044-0.139-0.089-0.278-0.133-0.417c-1.185-1.236-1.551-2.277,0.646-2.708
		c0.324,0.499-0.341,0.801-0.275,1.284c0.797,0.076,1.382-0.721,2.184-0.476c1.666,0.298,0.742,1.363,0.646,2.183
		C144.125,211.44,143.065,210.603,142.071,211.282z"/>
	<path fill="#2D2C2E" d="M157.691,357.087c-1.63-2.123-0.961-3.567,2.144-4.635C159.213,354.04,159.705,356.142,157.691,357.087z"/>
	<path fill="#302E3C" d="M159.483,160.729c-2.071,0.542-4.157-0.038-6.232,0.088c-0.835,0.051-1.036-0.667-1.489-1.084
		c0.194-0.749,0.682-0.938,1.38-0.724C155.252,159.591,157.488,159.714,159.483,160.729z"/>
	<path fill="#8A8E92" d="M99.266,316.944c-0.337,0.736-0.125,2.415-1.216,1.893c-0.918-0.438-3.392,0.202-2.714-2.333
		c0.122-0.458-0.05-0.993-0.087-1.492C95.819,317.252,97.707,316.756,99.266,316.944z"/>
	<path fill="#2D2C36" d="M152.888,180.151c-0.595,2.086-2.044,0.428-3.056,0.623c-1.133,0.22-0.576-0.815-0.571-1.359
		c0.007-0.834-0.419-1.715,0.241-2.485C149.06,179.652,151.682,179.158,152.888,180.151z"/>
	<path fill="#403A2B" d="M93.148,348.234c0.447-0.192,0.756-0.517,0.938-0.966c0.781-0.582,1.698-0.863,2.486-0.26
		c0.773,0.59,0.053,1.276-0.232,1.891C95.219,348.947,94.049,349.234,93.148,348.234z"/>
	<path fill="#875C11" d="M113.389,270.15c-0.805-0.362-0.332-1.195-0.64-1.739v0.003c0.689-1.075,0.705-2.359,1.092-3.527
		c0.041-0.15,0.082-0.3,0.123-0.45c0.458-0.373,0.915-0.746,1.373-1.12c0.68,1.354-0.296,2.592-0.269,3.899
		c-0.081,0.883-0.44,1.662-0.907,2.399C113.97,269.891,113.727,270.088,113.389,270.15z"/>
	<path fill="#323033" d="M78.635,347.132c0.513-1.597,1.622,0.51,2.251-0.363c0.548,1.109,1.937,0.562,2.649,1.345
		c-1.29,0.052-2.589,0.037-3.868,0.178C78.65,348.404,78.651,347.807,78.635,347.132z"/>
	<path fill="#C49F50" d="M154.005,253.976c-0.659-0.604-1.469-0.234-2.205-0.341c0.41-0.997-0.917-2.038,0.077-3.019
		C152.038,252.083,154.688,251.975,154.005,253.976z"/>
	<path fill="#2D2F36" d="M142.835,181.38c1.119,2.051,0.656,4.333,0.952,6.503C143.018,185.782,142.777,183.603,142.835,181.38z"/>
	<path fill="#BA9243" d="M113.841,264.888c0.093,1.317,0.183,2.633-1.092,3.527C112.735,267.122,113.073,265.938,113.841,264.888z"
		/>
	<path fill="#6A6875" d="M153.141,159.009c-0.46,0.241-0.92,0.482-1.38,0.724c-0.274-0.028-0.549-0.056-0.823-0.083
		c-0.6-0.568-0.007-0.869,0.277-1.24C151.856,158.61,152.499,158.81,153.141,159.009z"/>
	<path fill="#8B929B" d="M117.499,325.685c1.079-5.432,1.079-5.432,6.66-4.986c6.088,0.486,6.088,0.486,4.441,6.387
		c-1.762,0.872-3.641,0.652-5.489,0.521c-1.632-0.114-3.157-0.897-4.854-0.783C117.663,326.865,117.115,326.49,117.499,325.685z"/>
	<path fill="#8D939C" d="M141.947,328.789c-2.274,0.712-4.59,1.086-6.979,0.839c-0.794-0.836-2.149-1.111-2.445-2.446
		c0.103-0.634,0.293-1.271,0.287-1.904c-0.018-1.563,0.879-1.87,2.172-1.724c2.476-0.635,6.368,0.895,7.774,3.014
		C143.518,327.716,142.723,328.233,141.947,328.789z"/>
	<path fill="#686A6C" d="M143.034,337.803c-3.978-0.483-8.024-0.304-11.955-1.238c-0.572-0.327-1.329-0.134-1.825-0.575
		c-0.302-0.268-1.216-0.717-0.021-1.094c0.135,0.021,0.267,0.046,0.397,0.079c1.825,0.223,3.634-0.772,5.477-0.064
		c0.229,0.088,0.69-0.147,0.728-0.362c0.331-1.902,2.017-1.416,3.176-1.855c1.397-0.454,2.776-0.83,3.725,0.798
		c0.469,0.58,1.142,0.667,1.814,0.753c0.207,0.199,0.576,0.246,0.586,0.627c-0.178,0.759-1.703,0.838-0.906,2.204
		C144.609,337.729,143.379,337.421,143.034,337.803z"/>
	<path fill="#5C5F62" d="M107.463,332.623c-1.938-0.616-3.876-1.233-5.813-1.848c-0.285-0.086-0.673-0.309-0.56-0.53
		c0.723-1.404,0.028-2.747-0.09-4.115c0.078-0.777,0-1.58,0.37-2.303c0.481-0.943,1.407-0.964,2.229-0.846
		c1.131,0.165,0.655,1.229,0.854,1.912c0.749,2.103,3.036,2.281,4.45,3.553c1.253,1.931,1.181,2.403-0.502,3.278
		C108.348,332.295,108.052,332.611,107.463,332.623z"/>
	<path fill="#1A1A1F" d="M150.952,331.53c0.437-0.384,0.339,1.323,0.905,0.245c0.23-0.439,0.238-0.989,0.4-1.471
		c0.663-1.97,2.058-2.93,3.776-2.509c1.9,0.465,2.979,1.875,2.69,3.692c-0.293,1.851,0.848,3.332,0.741,5.055
		c-1.433,0.188-2.745,1.019-4.254,0.806c0.273-0.621,0.96-1.239-0.473-1.472c-1.096-0.179-2.085,0.522-3.144,0.135
		c-0.452-0.671-0.96-1.32-0.963-2.189C151.869,333.214,150.69,332.272,150.952,331.53z"/>
	<path fill="#262627" d="M143.842,317.52c0.124,0.029,0.245,0.066,0.363,0.114c0.447,0.885-0.856,1.81,0.078,2.719
		c0.187,0.182-0.033,0.565-0.35,0.655c-0.691,0.197-1.062-0.231-1.36-0.764c-1.682-0.422-3.046-1.567-4.77-2.206
		c-0.277,1.088,0.982,1.28,0.967,2.065c-2.53,1.316-5.044-0.192-7.585-0.238c0.563-0.042,1.148-0.001,1.686-0.142
		c1.276-0.337,3.678-0.196,1.21-2.428c-0.043-0.039-0.063-0.153-0.038-0.21c0.647-1.516,0.165-2.893-0.332-4.348
		c-0.15-0.441,1.228-0.895,0.729-1.846c0.382-0.414,0.721-0.325,1.028,0.092c-0.181,1.897,0.671,3.212,2.395,3.887
		C139.898,315.667,141.351,317.771,143.842,317.52z"/>
	<path fill="#7D8185" d="M141.947,328.789c-0.058-0.326-0.662-0.816,0.252-0.852c0.766-0.03,0.526-0.844,0.399-0.872
		c-1.499-0.323-1.675-2.842-3.713-2.218c-0.416,0.127-0.87-0.071-0.479-0.502c0.442-0.487,0.952-0.646-0.187-0.619
		c-1.079,0.027-2.138-0.462-3.238-0.171c2.042-2.445,4.783-1.954,7.464-1.822c1.198,0.058,1.891,0.386,1.89,1.757
		c-0.001,1.6,0.203,3.2,0.265,4.8c0.021,0.552,0.357,1.251-0.194,1.645c-0.833,0.595-0.853-0.666-1.442-0.761
		C142.612,329.116,142.285,328.922,141.947,328.789z"/>
	<path fill="#47484B" d="M129.232,334.896c-0.171,1.427,1.526,0.787,1.848,1.668c-1.219,0.273-2.39-0.116-3.576-0.263
		c0.125-1.167-0.884-1.028-1.447-1.059c-2.457-0.135-4.903-0.471-7.37-0.429c-0.521-0.075-1.49,0.204-0.631-0.893
		c0.985-1.256,1.963-2.181,3.815-1.545c1.056,0.362,2.315,0.37,3.444,0.226C127.298,332.346,127.772,334.414,129.232,334.896z"/>
	<path fill="#767A7E" d="M151.747,335.879c1.044-0.344,2.029-1.071,3.214-0.495c0.613,0.297,1.658,0.116,1.708,1.039
		c0.045,0.828-1.168,0.272-1.456,0.926c-3.042-0.333-6.041,0.706-9.085,0.284c-0.04-1.538,0.594-2.62,2.14-2.998
		C149.678,334.291,150.968,334.402,151.747,335.879z"/>
	<path fill="#777B7F" d="M117.499,325.685c0.037,0.754,0.628,0.646,1.095,0.673c3.34,0.187,6.621,1.185,10.007,0.728
		c-0.039,1.911-1.045,2.456-2.822,2.115c-1.68-0.323-3.391-0.482-5.011-1.078c-1.12-0.56-2.59,0.83-3.548-0.635
		C117.115,326.857,117.036,326.229,117.499,325.685z"/>
	<path fill="#282829" d="M118.044,315.581c0.054,0.104,0.104,0.211,0.146,0.321c-2.045,3.507-1.929,7.669-3.444,11.331
		c-0.175,0.421,0.592,1.359-0.567,1.256c-0.698-0.063-0.887-0.66-0.947-1.283c-0.035-0.363-0.094-0.723-0.142-1.083
		c-0.004-0.104-0.008-0.208-0.015-0.313c0.271-1.547,0.665-3.06,1.241-4.525c0.628-1.15,0.643-2.472,1.037-3.687
		c0.283-0.872,0.405-1.835,1.394-2.277C117.223,315.192,117.671,315.205,118.044,315.581z"/>
	<path fill="#868D90" d="M119.932,316.74c3.306,1.274,6.898,1.274,10.26,2.298c-0.569,0.928-1.413,0.381-2.123,0.344
		c-2.368-0.126-4.732-0.453-7.101-0.457C118.782,318.921,119.14,318.005,119.932,316.74z"/>
	<path fill="#47484B" d="M138.726,332.924c-0.608,0.771-2.892,0.007-1.99,2.168c-0.631-0.146-1.171-0.079-1.448,0.611
		c-1.769-1.161-3.842,0.054-5.657-0.728c2.75-1.778,5.921-1.997,9.032-2.441c0.164,0.062,0.227,0.141,0.191,0.236
		C138.817,332.869,138.774,332.92,138.726,332.924z"/>
	<path fill="#4D5054" d="M151.747,335.879c-2.56-1.629-3.635-1.295-5.618,1.753c-1.032,0.057-2.063,0.114-3.095,0.171
		c-0.439-0.473,1.486,0.2,0.379-1.041c-1.251-1.402,1.125-1.291,1.59-2.095c1.503-0.807,3.161-0.684,4.78-0.802
		c0.283-0.015,0.567-0.03,0.852-0.045C151.487,334.247,151.726,335.004,151.747,335.879z"/>
	<path fill="#777777" d="M118.686,334.814c1.898-0.949,3.878-0.063,5.818-0.229c1.059-0.09,2.207-0.138,3.202,0.602
		c0.828,0.616-0.106,0.755-0.204,1.114C124.563,335.806,121.625,335.31,118.686,334.814z"/>
	<path fill="#765A16" d="M130.839,310.708c-2.514,0.36-4.997-0.334-7.51-0.219c-0.707,0.032-1.419-0.179-2.094,0.195
		c0.698-1.326,2.035-0.519,3.016-0.901c0.305-0.354,0.714-0.509,1.156-0.484c3.154,0.171,6.316,0.23,9.465,0.511
		c0.645,0.058,1.623,0.009,1.16,1.216c-0.19,0.226-0.41,0.262-0.662,0.108c-0.311-0.081-0.62-0.162-0.931-0.242
		C133.24,310.83,132.04,310.769,130.839,310.708z"/>
	<path fill="#292A2B" d="M108.399,331.724c1.703-1.001,1.154-2.052,0.069-3.115c0.971-0.822,1.305-2.056,1.987-3.069
		c1.024-0.62,2.069-1.36,2.741,0.403c0,0-0.104,0.176-0.104,0.177c-1.83,0.759-2.957,2.172-3.082,4.086
		C109.928,331.453,109.354,331.663,108.399,331.724z"/>
	<path fill="#2F2F31" d="M149.783,333.866c-1.514,0.748-3.101,1.051-4.78,0.802c-0.151-0.141-0.303-0.281-0.455-0.422
		c1.59-0.369,0.806-2.167,2.053-3.148C146.398,333.632,148.347,333.4,149.783,333.866z"/>
	<path fill="#707378" d="M132.522,327.182c0.821,0.809,2.208,1.054,2.445,2.446c-0.141,0.016-0.284,0.026-0.424,0.047
		C131.659,330.098,131.512,329.917,132.522,327.182z"/>
	<path fill="#2C292F" d="M138.726,332.924c-0.019-0.131-0.04-0.261-0.063-0.391c0.436-0.247,0.864-0.507,1.31-0.739
		c1.46-0.762,2.371-0.199,2.763,1.698C141.527,332.388,140.082,332.973,138.726,332.924z"/>
	<path fill="#464648" d="M117.22,327.488c1.143,0.437,2.443-0.014,3.548,0.635c-1.098-0.297-1.49,1.122-2.869,0.915
		C116.146,328.773,116.89,328.238,117.22,327.488z"/>
	<path fill="#414140" d="M132.97,355.875c1.361-0.901,1.888-0.51,2.271,0.69C134.48,356.334,133.877,356.151,132.97,355.875z"/>
	<path fill="#414449" d="M101.313,326.486c1.477,1.323,0.293,2.854,0.337,4.289c-1.433-0.244-2.844-0.554-4.093-1.354
		c1.05-0.263,0.783-1.001,0.898-1.826c0.392-2.799-1.912-4.276-2.81-6.419c1.018-0.231,0.854,1.372,1.843,1.185
		C99.087,323.436,99.933,325.208,101.313,326.486z"/>
	<path fill="#93969A" d="M91.207,326.809c0.217-0.438,0.401-1.298,0.751-1.172c0.932,0.337,1.89,0.17,2.794,0.415
		c0.275,0.075,0.347,0.444,0.218,0.74c-0.156,0.358-0.452,0.609-0.842,0.506c-0.711-0.188-1.408-0.242-2.12-0.043
		C91.74,327.105,91.474,326.958,91.207,326.809z"/>
	<path fill="#492708" d="M127.201,290.129c4.884,0.319,9.381,0.614,13.879,0.906c0.432,0.028,1.083,0.004,1,0.55
		c-0.384,2.533,0.564,5.043,0.049,7.577c-0.153,0.75-0.376,1.074-1.207,1.019c-5.221-0.346-10.444-0.662-15.669-0.944
		c-0.871-0.047-1.384-0.043-1.041-1.207c0.637-2.159,1.133-4.362,1.622-6.561C126.059,290.466,126.335,289.711,127.201,290.129z"/>
	<path fill="#4D2C09" d="M122.286,308.222c-0.493-2.558,0.753-4.8,1.347-7.152c0.199-0.786,1.107-0.597,1.719-0.585
		c5.738,0.101,11.461,0.483,17.175,1.001c0.726,1.586,0.374,2.861-0.894,4.081c-1.247,1.2-2.8,2.088-3.696,3.67
		c-0.34,0.602-1.093,0.656-1.771,0.615c-1.701-0.162-3.437,0.062-5.109-0.442c-1.337-1.267-3.051-0.538-4.572-0.835
		c-0.917-0.178-1.885,0.094-2.835,0.112C123.141,308.685,122.663,308.601,122.286,308.222z"/>
	<path fill="#381E08" d="M137.225,289.542c-3.021-0.138-6.043-0.32-9.066-0.396c-1.999-0.05-1.379-1.296-1.214-2.375
		c0.065-1.643,0.169-3.274,0.694-4.857c0.406-1.224,1.052-2.053,2.488-1.878c2.936,0.637,5.948,0.475,8.913,0.84
		c1.565,0.193,2.296,0.665,2.416,2.37c0.129,1.836-0.414,3.473-0.924,5.126C140,290.099,138.507,289.643,137.225,289.542z"/>
	<path fill="#C59D5C" d="M115.362,284.98c-0.024-0.168-0.049-0.335-0.073-0.504c-0.017-1.519,0.51-2.802,1.655-3.818
		c2.502,0.063,4.454,1.836,6.874,2.223c0.593,0.095,0.576,0.896,0.322,1.479c0.015,0.292,0.03,0.582,0.044,0.874
		c-0.337,1.001,0.246,2.307-0.993,3.012c-1.419,0.401-2.759,0.834-3.143,2.58c-0.183,0.83-0.972,0.84-1.6,0.496
		c-1.149-0.63-2.856-0.91-2.538-2.763C116.137,287.251,115.799,286.132,115.362,284.98z"/>
	<path fill="#CB961F" d="M123.105,287.941c0.36-0.902,0.721-1.805,1.08-2.708c0.683,1.389,0.494,2.699,0.064,4.185
		c-0.682,2.351-0.906,4.83-1.409,7.236c-0.679,3.251-1.611,6.443-2.452,9.648c-0.806,3.072-1.443,6.212-2.344,9.278
		c-0.409-0.021-0.819-0.04-1.229-0.06c-0.207-0.127-0.353-0.304-0.44-0.53c0.053-2.425,0.817-4.725,1.34-7.057
		c1.305-5.833,3.133-11.543,4.253-17.427C122.146,289.57,122.406,288.654,123.105,287.941z"/>
	<path fill="#8D650B" d="M129.978,280.364c-1.127-0.006-1.542,0.575-1.813,1.668c-0.394,1.58-0.336,3.287-1.221,4.738
		c-0.483-1.376-1.246-2.604-2.053-3.807c-0.679-0.89-1.161-1.89-1.629-2.898c0.073-0.127,0.17-0.296,0.287-0.294
		c1.689,0.023,3.341-0.036,4.41-1.664c3.424-0.686,6.888,0.133,10.318-0.304c1.781-0.034,3.631-0.522,5.211,0.777
		c-0.375,1.516-1.423,0.313-2.122,0.459c-0.802,0.167-1.692-0.105-2.545-0.179c-1.749-0.152-0.561,0.792-0.488,1.318
		c-0.553,0.688-1.294,0.504-2.021,0.461C134.203,280.514,132.096,280.315,129.978,280.364z"/>
	<path fill="#593809" d="M129.978,280.364c2.099-1.263,4.301-0.109,6.448-0.266c0.63-0.046,1.271,0.049,1.907,0.08
		c1.495,0.216,2.987,0.449,4.485,0.646c1.52,0.201,2.146,0.979,1.711,2.503c-0.472,0.037-0.624-0.291-0.739-0.643
		c-0.234-0.717-0.695-1.114-1.47-0.968c-0.953,0.18-0.74,0.959-0.685,1.569c0.205,2.247,0.191,4.489-0.021,6.733
		c-1.435-0.438-2.977,0.132-4.392-0.478c1.974,0.07,3.002-0.566,3.082-2.854c0.039-1.135,1.12-2.226,0.881-3.653
		c-0.194-1.164-0.643-1.647-1.841-1.6c-2.459,0.098-4.881-0.564-7.361-0.405C131.331,281.071,130.53,280.936,129.978,280.364z"/>
	<path fill="#654414" d="M136.054,309.418c0.866-0.098,1.543-0.203,1.938-1.297c0.526-1.468,2.299-1.846,3.315-3.012
		c0.983-1.125,1.616-2.14,1.22-3.625c1.15,2.751,0.723,5.539,0.192,8.328C140.449,310.5,138.196,310.899,136.054,309.418z"/>
	<path fill="#AC8A54" d="M123.312,280c1.373,0.536,1.66,1.651,1.58,2.963c-0.25,0.465-0.501,0.931-0.752,1.397
		c-0.082-0.419-0.044-1.121-0.484-1.117c-2.532,0.016-4.398-1.823-6.733-2.313c-0.521-1.455,0.387-2.053,1.511-2.523
		C120.085,278.851,121.889,278.844,123.312,280z"/>
	<path fill="#BE8E1A" d="M136.054,309.418c2.221,0.131,4.443,0.263,6.665,0.395c-0.049,0.29,1.419,0.549,0.017,0.865
		c-1.059,1.042-2.337,0.454-3.538,0.491c-0.873,0.027-1.696-0.51-2.586-0.195c-0.226,0.017-0.452,0.033-0.677,0.049
		c-0.841-1.48-2.315-0.595-3.43-0.762c-2.715-0.404-5.498-0.349-8.253-0.478c-0.556-0.543-1.25-0.164-1.86-0.292
		c-1.343-0.282-0.514-0.806-0.104-1.269c0.391-0.023,0.781-0.047,1.173-0.071c1.73,0.521,3.522,0.394,5.293,0.45
		c0.872,0.028,1.717,0.003,2.424,0.614C132.803,309.283,134.429,309.35,136.054,309.418z"/>
	<path fill="#6D5018" d="M136.612,310.974c1.995-1.062,4.098,0.084,6.124-0.295c1.808,1.775,1.167,3.966,1.033,6.072
		c0.1-1.577-0.944-2.575-2.089-3.168C139.996,312.71,138.501,311.446,136.612,310.974z"/>
	<path fill="#DAAC5C" d="M123.105,287.941c-0.801,5.32-2.493,10.429-3.705,15.651c-0.898,3.876-1.814,7.75-2.723,11.625
		c-2.172,2.322-2.982,2.383-4.387,0.336c0.444-0.739,1.494-0.38,1.976-1.047c-0.26-0.995-1.883-0.223-1.886-1.506
		c0.415-0.243,1.664-0.081,0.545-1.075c-1.122-0.997-2.493-1.243-3.941-1.21c-0.331-0.092,0.61-0.56-0.226-0.625
		c-0.587-0.047-1.514-0.17-1.223-1.258c-0.482-0.387-0.964-0.772-1.443-1.159c-1.011-1.374,0.405-2.379,0.796-3.307
		c2.735-6.498,5.313-13.073,8.475-19.387c1.032,0.592,1.568,1.366,1.271,2.653c-0.369,1.603,0.771,3.178,2.332,3.436
		c0.442,0.073,0.738-0.037,0.745-0.486C119.742,288.271,121.344,288.012,123.105,287.941z"/>
	<path fill="#8E939A" d="M113.197,325.944c-0.836-1.593-1.811-0.092-2.716-0.121c-1.687-0.558-3.512-0.768-4.938-1.967
		c-0.17-0.475-0.423-0.895-0.864-1.174c-0.131-0.542-0.518-0.996-0.257-1.659c0.629-1.601-0.161-2.247-1.753-2.261
		c0.225-0.778,0.406-1.542,0.982-2.13c0.744-0.816,1.686-0.53,2.588-0.469c1.047,0.069,2.125,0.324,3.029-0.497
		c2.194,0.308,3.749,1.77,5.341,3.086c0.949,0.786,0.438,1.862,0.05,2.813C114.134,323.013,114.21,324.661,113.197,325.944z"/>
	<path fill="#53575A" d="M114.658,321.566c0.494-1.715-0.195-2.769-1.759-3.521c-1.275-0.615-2.444-1.452-3.662-2.19
		c-1.913,0.261-2.907-1.544-4.5-2.007c0.792-1.088-0.071-1.625-0.81-2.311c2.332,1.367,5.005-0.185,7.264,1.122
		c-0.603,0.523-1.228,0.535-1.892,0.109c1.257,0.759,2.459,1.584,3.227,2.888c1.591,1.802,2.811,0.11,4.15-0.439
		c0.062,0.094,0.107,0.195,0.138,0.304c-1.024,1.25-0.988,2.857-1.416,4.304C115.216,320.448,115.266,321.135,114.658,321.566z"/>
	<path fill="#26272B" d="M104.678,322.682c0.571-0.035,1.151-0.078,0.855,0.807c-0.099,1.002-0.528,1.729-1.601,1.922
		c-0.646-0.579,0.811-2.01-0.797-2.133c-1.222-0.094-1.562,0.751-1.472,1.838c0.022,0.282,0.043,0.576-0.017,0.849
		c-0.041,0.188-0.219,0.347-0.336,0.52c-2.174-0.542-2.751-2.563-3.823-4.126c1.962,0.403,1.552-1.682,2.48-2.362
		c0.824,0.529-0.161,1.511,0.52,2.076c-0.244,1.114,0.435,1.027,1.093,0.773C102.609,322.449,103.629,322.426,104.678,322.682z"/>
	<path fill="#989DA0" d="M93.391,314.283c1.38,1.104,0.932,2.626,0.344,3.691c-0.572,1.039-1.829,0.122-2.733-0.099
		c-1.599-0.388-1.182-1.464-0.677-2.499C91.592,315.701,92.674,315.503,93.391,314.283z"/>
	<path fill="#E8E6E8" d="M93.391,314.283c0.034,0.792,0.093,1.622-0.907,1.887c-0.881,0.235-1.694,0.164-2.159-0.794
		C90.792,313.456,91.778,312.989,93.391,314.283z"/>
	<path fill="#DEE0E2" d="M107.535,308.833c0.545,0.404,1.084,0.817,1.637,1.209c0.596,0.422-0.032,0.476-0.189,0.673
		c-0.788-0.074-1.578-0.147-2.469-0.231C106.808,309.877,106.626,309.054,107.535,308.833z"/>
	<path fill="#414449" d="M95.646,321.173c-0.136,0.039-0.272,0.074-0.407,0.118c-0.607,0.198-0.585,1.391-1.356,1.095
		c-0.8-0.307-0.318-1.258-0.514-1.896C93.898,321.475,95.311,319.531,95.646,321.173z"/>
	<path fill="#51555B" d="M89.363,320.254c-0.616,0.659-0.13,1.356,0.125,2.229c-2.336-0.515-1.031-2.292-1.514-3.318
		C88.632,319.28,88.392,320.541,89.363,320.254z"/>
	<path fill="#575759" d="M100.489,322.074c-1.523-0.354-0.058-1.457-0.52-2.076C101.682,320.305,100.363,321.37,100.489,322.074z"/>
	<path fill="#A09A90" d="M145.382,268.621c1.611,0.369,0.864,1.707,1,2.623c0.086,0.583-0.245,1.228-0.388,1.845
		c-0.908,1.641-2.485,1.112-3.834,1.09c-1.847-0.03-3.681-0.569-5.538-0.114c-0.231,0.002-0.456-0.04-0.673-0.116
		c-2.128-0.669-4.35-0.359-6.52-0.612c-0.223-0.064-0.414-0.182-0.576-0.349c-0.299-0.604-0.066-1.099,0.321-1.563
		c1.831-1.402,3.234-3.366,5.5-4.206C138.237,267.741,141.943,267.173,145.382,268.621z"/>
	<path fill="#9B8F81" d="M143.49,278.579c-1.73-0.158-3.458-0.413-5.199-0.144c-2.866-0.071-5.716-0.623-8.598-0.288
		c-0.685,0.081-1.292-0.1-1.802-0.578c-0.559-0.946-0.338-1.777,0.374-2.537c2.298-0.85,4.592,0.113,6.899,0.061
		c2.457-0.057,4.928,0.261,7.398,0.32c0.866,0.021,1.749,0.167,2.424,0.827c0.026,0.268,0.054,0.535,0.079,0.803
		c-0.202,0.422,0.196,0.977-0.293,1.335C144.346,278.445,143.918,278.512,143.49,278.579z"/>
	<path fill="#A0998E" d="M146.261,273.864c0.697,1.02,0.487,1.641-0.789,1.792c-5.624-0.1-11.246-0.217-16.811-1.177
		c-0.428-0.599-0.604-1.157,0.259-1.54l0.115,0.062c1.841,0.524,3.75,0.148,5.612,0.419c0.501,0.074,1.02,0.004,1.444,0.358
		l-0.019-0.011C139.474,273.346,142.859,274.494,146.261,273.864z"/>
	<path fill="#796D5F" d="M128.704,274.271c5.179,0.367,10.356,0.739,15.537,1.095c0.436,0.03,0.873-0.032,1.23,0.291
		c-0.161,0.195-0.322,0.39-0.484,0.585c-5.538-0.322-11.076-0.644-16.615-0.965C127.987,274.777,128.296,274.507,128.704,274.271z"
		/>
	<path fill="#9E7220" d="M145.382,268.621c-3.695-0.32-7.391-0.64-11.085-0.959c-0.825-0.453-0.586-0.856,0.115-1.086
		c0.741-0.243,1.515,0.063,2.276,0.028c1.931,0.236,3.881,0.15,5.81,0.402c0.852,0.112,1.737,0.122,2.355,0.868
		c0.165,0.124,0.33,0.249,0.494,0.373C145.359,268.371,145.37,268.496,145.382,268.621z"/>
	<path fill="#C3BBB2" d="M146.261,273.864c-0.064,0.358-0.104,0.708-0.628,0.666c-3.186-0.262-6.373-0.509-9.559-0.761
		c1.871-0.942,3.804-0.319,5.709-0.192c1.442,0.096,2.877,0.284,4.211-0.487C146.083,273.347,146.172,273.605,146.261,273.864z"/>
	<path fill="#EDEFF0" d="M149.2,274.083c-1.667-1.459-1.184-3.045-1.115-4.529c0.016-0.354,0.338-0.443,0.631-0.459
		c0.455-0.022,0.646,0.278,0.637,0.677C149.319,271.108,149.26,272.442,149.2,274.083z"/>
	<path fill="#AB843C" d="M147.155,278.034c0.846,0.175,0.738,0.997,1.018,1.531c0.289,0.553-0.129,0.789-0.623,0.809
		c-0.629,0.025-1.246-0.153-1.211-0.898C146.362,278.928,146.55,278.326,147.155,278.034z"/>
	<path fill="#AB843C" d="M144.773,278.379c-0.022-0.472-0.134-0.963,0.294-1.335c0.24,0.496,0.959,0.728,0.885,1.357
		c-0.044,0.377-0.318,1.004-0.547,1.031C144.659,279.519,144.898,278.798,144.773,278.379z"/>
	<path fill="#B58624" d="M143.269,252.665c-0.887,0.045-1.772,0.09-2.659,0.136c-0.181,0.246-0.443,0.472-0.72,0.432
		c-2.336-0.337-3.63,1.162-5.179,2.557c-1.588,1.431-1.85,3.212-2.286,5.03c-0.281,0.907-0.451,1.842-0.73,2.75
		c-0.152,0.415-0.343,0.805-0.718,1.071c-0.464,0.185-0.839,0.063-1.138-0.325c-1.07-1.435-0.667-2.751,0.324-4.021
		c0.517-2.191,1.406-4.316,1.063-6.648c-0.092-0.627,0.35-1.083,0.641-1.587c0.779-1.353,1.336-2.762,0.869-4.369
		c-0.297-1.028,0.135-1.85,0.746-2.619c1.242-1.392,1.381-3.13,1.52-4.863c-0.39-0.685-1.268-0.626-1.745-1.144
		c-0.362-0.392-0.885-0.878,0.122-1.161c0.277-0.018,0.557-0.036,0.835-0.054c3.137,0.71,3.137,0.71,3.063,2.907
		c-0.067,0.658-0.282,1.292-0.327,1.954c-0.305,1.793-0.93,3.507-1.299,5.289c-0.257,1.241,0.142,1.892,1.296,2.335
		c1.571,0.604,3.174,1.018,4.831,1.292C142.372,251.724,143.379,251.462,143.269,252.665z"/>
	<path fill="#6D6557" d="M136.844,240.754c0.868-2.548-1.764-1.926-2.631-2.903c1.088-0.082,2.177-0.162,3.341-0.249
		c-0.375-0.931-0.784-0.399-1.135-0.367c-0.383-0.289-0.968-0.354-1.063-0.962c0.507-1.262,1.734-2.097,2.061-3.467
		c0.754-1.606,1.739-0.361,2.636-0.214c-1.742,1.163,0.02,2.266,0.166,3.337c0.183,1.34,1.552,0.481,2.361,0.732
		c0.465,0.288,0.723,0.642,0.371,1.181c0.849,1.065,2.18,0.537,3.214,0.98c0.684,0.294,1.827,0.23,1.573,1.355
		c-0.219,0.973-1.167,1.021-1.964,0.679c-1.637-0.703-2.604-0.084-3.267,1.421c-0.204,0.464-0.588,0.902-1.173,0.789
		c-0.561-0.108-0.754-0.571-0.832-1.129c-0.293-2.108-0.311-2.111-2.25-1.198C137.774,240.964,137.318,241.155,136.844,240.754z"/>
	<path fill="#8D6013" d="M133.377,237.905c-0.647,0.855,0.199,0.892,0.632,1.081c0.612,0.267,1.42,0.159,1.734,0.962
		c-1.244,1.146-2.543,1.598-3.977,0.308c-1.191,0.202-2.454,0.61-3.019-1.028c0.122-0.582,0.614-0.784,1.06-1.034
		C130.891,236.775,132.139,237.401,133.377,237.905z"/>
	<path fill="#C0AB88" d="M137.415,232.807c0.111,1.606-0.449,2.857-1.913,3.635c-0.545,0.307-1.098,0.53-1.696,0.129
		c-0.126-0.898-0.104-1.861,0.811-2.251c1.018-0.435-0.03-0.97,0.221-1.393C135.713,233.237,136.615,234.112,137.415,232.807z"/>
	<path fill="#E9EBEC" d="M126.89,235.429c1.515-0.262,2.69-0.464,3.905-0.674C130.382,237.15,130.228,237.181,126.89,235.429z"/>
	<path fill="#D3B583" d="M133.807,236.57c0.563-0.077,1.101-0.488,1.696-0.129c0.363,0.198,0.784,0.331,0.917,0.795
		C135.542,237.037,134.305,238.252,133.807,236.57z"/>
	<path fill="#A7A19C" d="M126.86,237.026c-0.88,0.146-1.76,0.292-2.64,0.438C124.708,234.963,125.919,236.807,126.86,237.026z"/>
	<path fill="#C2BDAA" d="M134.408,225.658c-0.403-1.208-0.237-2.093,0.334-2.998C135.195,223.704,135.022,224.617,134.408,225.658z"
		/>
	<path fill="#B4831A" d="M128.704,274.271c-0.111,0.334-0.222,0.669-0.332,1.005c-0.155,0.718-0.519,1.404-0.346,2.174
		c0.021,0.378-0.1,0.684-0.449,0.87c0.112,2.213-0.975,2.548-2.808,1.844c-0.441-0.17-0.969-0.115-1.458-0.164
		c-1.641-0.36-3.392-0.339-4.834-1.389c-0.733-0.042-1.452,0.141-2.183,0.158c-0.148-0.268-0.297-0.537-0.444-0.805
		c-0.6-0.061-1.125-0.278-1.54-0.731c0.459-1.273-0.292-1.691-1.308-2.178c-0.963-0.461-2.615-0.885-1.2-2.572
		c1.197,0.725,2.549,1.1,3.816,1.668c1.808,0.918,3.779,1.398,5.659,2.123c1.285,0.479,2.598,0.871,4.042,1.329
		c-0.231-0.579-0.823-0.662-1.009-1.095c-0.158-1.088,0.444-1.56,1.415-1.601c0.681-0.029,1.02-0.346,1.179-0.953
		c0.66-2.492,1.087-5.045,2.037-7.456c0.564-0.558,0.827-2.296,2.001-0.524c0.013,0.973-0.351,1.873-0.545,2.806
		c-0.283,0.973-0.533,1.959-1.059,2.843c-0.139,0.438-0.279,0.877-0.419,1.316C128.565,273.337,128.646,273.806,128.704,274.271z"/>
	<path fill="#92620D" d="M116.295,278.769c0.658-1.011,1.411-0.709,2.182-0.158c-0.751,0.617-1.425,1.286-1.556,2.319
		c-0.745,1.09-1.241,2.294-1.632,3.547c-0.935-0.765-0.098-1.464,0.134-2.132C115.827,281.174,116.231,280.017,116.295,278.769z"/>
	<path fill="#757466" d="M136.844,240.754c0.821,0.024,1.307-0.503,1.82-1.042c0.57-0.6,1.261-0.652,1.981-0.23
		c0.771,0.45,0.896,1.053,0.508,1.84c-0.216,0.438-0.566,1.033,0.061,1.339c0.713,0.349,0.833-0.396,0.963-0.823
		c0.615-2.024,1.916-2.396,3.667-1.514c0.699,0.353,1.197,0.449,1.683-0.454c-1.598-0.76-3.301-0.878-4.984-1.092
		c-0.402-0.051-1.005-0.092-0.93-0.653c0.076-0.561,0.69-0.35,1.09-0.421c0.974-0.095,1.923-0.302,2.931-0.208
		c1.227,0.114,2.219,0.494,2.896,1.553c0.018,0.517,0.035,1.033,0.053,1.55c-0.289,0.517-0.104,1.231-0.677,1.629
		c-1.688,0.143-0.524,0.759-0.198,1.236c0.578,1.128-0.455,2.34,0.188,3.464c0.039,0.204,0.017,0.401-0.054,0.595
		c-0.581,0.565-0.722,1.466-1.453,1.921c-1.066,0.112-2.133,0.225-3.175-0.156c-0.617-0.586-0.04-0.933,0.323-1.187
		c1.685-1.179,1.433-2.881,1.238-4.533c-0.11-0.944-0.558-1.21-1.472-0.552c-2.75,1.977-4.129,1.848-6.854-0.473
		C136.58,241.949,136.712,241.352,136.844,240.754z"/>
	<path fill="#564C3C" d="M142.461,236.777c-2.079,0.981-2.667,0.697-2.761-1.354c-0.021-0.411-0.339-0.583-0.519-0.869
		c-0.649-1.029-0.864-1.95,0.869-1.961c0.971,0.329,1.874,0.506,2.528,1.621c0.639,1.088,2.223,1.098,3.436,1.469
		c0.938,0.322,1.928,0.437,2.873,0.727c0.549,0.169,1.16,0.305,0.854,1.127c-0.113,0.162-0.227,0.325-0.34,0.487
		C146.993,238.142,144.877,236.625,142.461,236.777z"/>
	<path fill="#A6A292" d="M142.461,236.777c0.075-0.874,0.586-0.826,1.226-0.613c1.901,0.632,3.811,1.243,5.715,1.86
		c-0.782-0.077-0.575,0.69-0.875,1.027c-1.767-1.208-3.903-0.814-5.827-1.345C143.069,237.281,142.618,237.067,142.461,236.777z"/>
	<path fill="#4D3617" d="M149.34,244.207c-0.02,0.308-0.037,0.615-0.055,0.922c-0.394,1.088-0.579,2.211-0.588,3.366
		c-0.004,0.527-0.055,1.026-0.697,1.176c-0.213-0.112-0.369-0.277-0.473-0.496c-0.224-0.59-0.213-1.16,0.151-1.698
		c0.014-0.17,0.027-0.341,0.042-0.511c-0.431-1.17,0.268-2.362-0.069-3.535c-0.225-0.483-0.188-0.938,0.146-1.36
		c0.261-0.489,0.521-0.979,0.783-1.469C148.952,241.779,148.203,243.191,149.34,244.207z"/>
	<path fill="#A6A292" d="M149.743,237.537c-0.792-1.526-2.752-0.699-3.728-1.854c1.722-0.258,3.267,0.502,4.881,0.851
		C151.05,237.486,151.156,238.385,149.743,237.537z"/>
	<path fill="#5B5E6A" d="M113.818,269.677c0.216-0.715,0.432-1.43,0.647-2.145c0.995-2.416,1.273-5.058,2.354-7.447
		c0.187-1.185,0.4-2.36,0.968-3.438c0.771-2.784,1.543-5.568,2.313-8.351c1.106-2.373,1.533-4.96,2.269-7.45
		c0.353-1.194,0.846-1.251,1.83-0.848c2.334,0.959,4.652,1.987,7.056,2.74c2.101,0.658,0.789,2.103,0.997,3.197
		c0.012,0.1,0.023,0.199,0.038,0.299c-0.24,1.485-0.678,2.921-1.117,4.356c-0.74,2.335-1.457,4.676-1.96,7.076
		c-0.049,0.202-0.115,0.398-0.189,0.591c-0.457,1.058-0.672,2.19-1.028,3.28c-0.87,3.757-2.313,7.347-3.169,11.109
		c-0.442,1.939-1.167,2.261-3,1.539c-2.163-0.853-4.375-1.601-6.46-2.629C114.649,271.202,113.343,271.104,113.818,269.677z"/>
	<path fill="#776952" d="M127.265,274.427c-0.277,0.547-0.137,1.646-1.313,1.02c-1.033-0.552-1.147,0.422-1.556,0.915
		c-0.383,0.179-0.623-0.035-0.843-0.307c-0.744-1.353,0.762-2.004,1.005-3.102c0.861-3.875,2.207-7.63,3.229-11.471
		c0.396-1.128,0.68-2.289,0.978-3.445l-0.012,0.023c0.632-2.398,1.487-4.735,1.978-7.172c0.856-1.556,0.891-3.364,1.531-4.985
		l-0.013,0.034c1.208-0.728,0.172-2.843,1.979-3.2c0.501,0.892,0.069,1.689-0.255,2.497c-0.778,0.75-0.937,1.434-0.545,2.611
		c0.53,1.588-0.137,3.285-1.141,4.597c-0.509,0.665-0.51,1.043-0.429,1.832c0.224,2.17-0.716,4.209-1.196,6.3
		c-0.565,0.732-1.932,0.792-1.78,2.126c-0.232,1.516-0.646,2.99-1.077,4.452C127.1,269.547,126.615,271.939,127.265,274.427z"/>
	<path fill="#76715F" d="M133.974,245.232c-0.229-0.865,0.171-1.665,0.255-2.497c-0.476-1.169-2.273-1.024-2.462-2.48
		c1.379,0.598,2.649-0.219,3.976-0.308C135.246,241.74,135.457,243.77,133.974,245.232z"/>
	<path fill="#A29B91" d="M130.934,264.495c0.121-0.329,0.242-0.657,0.363-0.985c1.949,0.218,3.911,0.279,5.864,0.455
		c1.721,0.235,3.449,0.354,5.187,0.392c1.627,0.034,3.401,0.458,3.936-1.85c0.046-0.199,0.372-0.096,0.569,0.001
		c0.938,1.765,0.705,3.483-0.198,5.175c-0.6,0.063-1.198,0.125-1.799,0.189c-2.756-0.247-5.51-0.493-8.265-0.74
		c-1.465-0.596-3.113-0.482-4.554-1.176C131.415,265.656,130.556,265.544,130.934,264.495z"/>
	<path fill="#4A3417" d="M148.105,265.442c0.076,0.132,0.09,0.272,0.044,0.417c-0.448,0.556-0.536,1.342-1.137,1.801l-0.178,0.023
		c0,0-0.181,0-0.182,0c-0.004-1.749-0.009-3.497-0.013-5.246c-0.404-0.605-0.509-1.135,0.36-1.417
		C148.178,262.292,147.16,264.113,148.105,265.442z"/>
	<path fill="#A37720" d="M147.013,267.661c0.08-0.789,0.014-1.672,1.137-1.802c0.079,0.434,0.158,0.867,0.236,1.3
		C148.058,267.682,147.521,267.634,147.013,267.661z"/>
	<path fill="#918980" d="M116.994,260.226c-1.07,2.356-0.918,5.135-2.527,7.306c0.289-1.402,0.577-2.805,0.868-4.211
		c0.405-1.027,0.809-2.053,1.211-3.078C116.688,260.041,116.838,260.045,116.994,260.226z"/>
	<path fill="#9E9386" d="M116.994,260.226c-0.148,0.006-0.298,0.012-0.447,0.017c0.204-1.27,0.189-2.615,1.239-3.595
		C117.522,257.84,117.258,259.033,116.994,260.226z"/>
	<path fill="#918980" d="M128.085,261.575c-1.443,4.671-2.366,9.502-4.299,14.025c-0.04,0.093,0.101,0.262,0.157,0.396
		c-0.923,0.706-1.58-0.146-2.34-0.395c-1.608-0.962-3.321-1.675-5.135-2.158c-0.795-0.441-2.046-0.295-2.136-1.648
		c-0.332-0.539-0.959-0.907-0.944-1.644c0.144-0.158,0.286-0.315,0.429-0.474c0.109,1.054,1.065,1.086,1.749,1.377
		c2.124,0.905,4.331,1.627,6.397,2.642c1.484,0.729,1.955,0.401,2.36-1.132c1.01-3.819,2.205-7.589,3.326-11.378
		C127.844,261.261,127.987,261.394,128.085,261.575z"/>
	<path fill="#945F0B" d="M114.333,271.795c0.651,0.691,1.583,0.833,2.395,1.208c0.953,1.677-0.477,1.263-1.25,1.425
		c-1.276-0.549-3.074-0.117-3.675-1.945C112.29,270.942,113.47,271.952,114.333,271.795z"/>
	<path fill="#83847A" d="M149.684,250.445c0.321-0.071,0.643-0.143,0.963-0.214c0.035,0.75,0.068,1.5,0.104,2.25
		c-0.461,0.773-1.068,0.948-1.839,0.455C148.251,251.823,149.661,251.348,149.684,250.445z"/>
	<path fill="#C49F50" d="M148.951,252.548c0.629,0.732,1.212,0.271,1.8-0.068c0.024,0.294,0.05,0.588,0.076,0.882
		c-1.567,0.042-3.137,0.1-4.618-0.565c0.201-0.295,0.495-0.441,0.827-0.532c0.329-0.08,0.662-0.105,1-0.085
		C148.377,252.211,148.679,252.341,148.951,252.548z"/>
	<path fill="#8D8F80" d="M131.952,260.833c-0.135-3.605,2.525-5.523,4.691-7.728c1.212-1.234,2.671,0.178,3.966-0.304
		c1.584,0.734,3.356,0.461,4.993,0.916c0.748,0.758,0.646,1.695,0.576,2.636c-0.132,1.797-0.642,3.534-0.83,5.324
		c-0.252,2.388-0.485,2.49-2.853,1.405c-2.211-1.646-4.853-1.029-7.308-1.363C134.06,261.564,132.852,261.793,131.952,260.833z"/>
	<path fill="#858779" d="M147.371,252.622c-0.387,0.059-0.771,0.117-1.16,0.175c-0.98-0.1-1.988,0.469-2.943-0.132
		c-2.13-0.879-4.498-0.796-6.643-1.767c-1.428-0.646-2.191-1.147-1.598-2.864c0.617-1.779,0.958-3.654,1.419-5.487
		c1.331-0.187,1.97,1.263,3.369,1.293c1.302,0.027,2.291-0.094,3.047-1.116c0.408-0.551,0.817-1.154,1.522-1.042
		c0.936,0.147,0.868,1.108,0.974,1.767c0.369,2.31,0.229,4.473-2.273,5.652c0.93,0.961,2.301,0.742,3.397,1.264
		C147.403,250.872,147.926,251.537,147.371,252.622z"/>
	<path fill="#C7C8C6" d="M142.796,262.691c0.592,0.248,1.185,0.496,1.965,0.821c-0.302-3.422,1.304-6.502,0.841-9.796
		c0.62-0.086,1.254-0.24,1.724,0.371c0.498,2.386,0.411,4.752-0.246,7.099c-0.663,0.236-0.1,0.902-0.439,1.251
		c-0.346,0.242-0.407,0.611-0.344,0.971c0.307,1.771-0.601,1.906-2.031,1.682c-2.349-0.368-4.783,0.113-7.104-0.644
		C138.083,262.658,140.241,261.986,142.796,262.691z"/>
	<path fill="#A37720" d="M147.08,261.187c-0.311-2.381-0.088-4.744,0.246-7.101c0.551,0.138,1.116,0.246,1.446,0.789
		c0.229,3.551-0.874,7.018-0.667,10.567C146.382,264.357,147.511,262.583,147.08,261.187z"/>
	<path fill="#0D0E11" d="M103.933,325.412c0.534-0.641,1.066-1.282,1.601-1.922c1.648,0.777,3.298,1.555,4.947,2.334
		c-0.285,1.207-0.077,2.77-2.013,2.785C106.865,327.671,104.997,327.112,103.933,325.412z"/>
	<path fill="#8B8E93" d="M157.526,331.277c-0.313,0.745,0.348,2.38-1.211,2.348c-1.048-0.021-2.952,0.286-2.982-1.59
		c-0.021-1.264,0.094-2.956,2.008-3.061C156.705,328.9,157.469,329.699,157.526,331.277z"/>
	<path fill="#2F2F31" d="M144.358,335.743c0.778-0.217,1.394-0.496,1.861,0.169c0.067,0.097-0.056,0.442-0.19,0.545
		C145.278,337.038,144.913,336.438,144.358,335.743z"/>
	<path fill="#624624" d="M127.577,278.319c0.023-0.355,0.107-0.679,0.449-0.87c2.942,0.218,5.883,0.444,8.824,0.648
		c0.504,0.035,1.016-0.022,1.438,0.337c-3.315,0.436-6.668-0.497-9.983,0.251C128.102,278.732,127.823,278.449,127.577,278.319z"/>
	<path fill="#A98855" d="M113.392,300.085c1.012,0.81,0.454-0.933,1.364-0.474c0.333,0.286-0.575,0.859-0.173,1.382
		c0.122-0.057,0.302-0.08,0.336-0.164c0.452-1.105,1.193-0.761,1.926-0.388c0.37,0.188,0.59,0.667,0.277,0.865
		c-0.606,0.383-1.368,0.825-2.015,0.756c-0.719-0.076-1.379-0.693-2.064-1.076C112.698,300.508,112.681,300.156,113.392,300.085z"/>
	<path fill="#A18456" d="M113.392,300.085c-0.325,0.22-0.366,0.549-0.348,0.901c-0.405-0.681-1.69-0.28-1.73-1.266
		c-0.023-0.6,0.223-1.322,0.595-1.795c0.395-0.501,0.654,0.3,0.972,0.373C114.223,298.611,113.389,299.451,113.392,300.085z"/>
	<path fill="#A98855" d="M117.784,303.758c-0.133-0.912-0.677-1.575,0.176-1.759c0.26-0.056,0.75-0.681,1.021-0.07
		C119.425,302.936,118.295,302.912,117.784,303.758z"/>
	<path fill="#C8993C" d="M130.934,264.495c0.843,1.389,2.487,1.168,3.705,1.813c0.611,0.322,1.381,0.341,1.95,0.824
		c-0.659,0.164-1.265-0.073-1.897-0.206c-0.736-0.154-0.622,0.295-0.394,0.736c-1.682,1.283-3.031,2.982-4.957,3.961
		c-0.426-1.015,0.359-1.77,0.568-2.649c0.6-1.006,1.547-1.65,2.586-2.372c-0.825,0.289-1.407,0.206-1.792-0.496
		c-0.529-0.571-0.529-0.571-1.349,0.688c-0.75-0.863-0.461-1.71,0.039-2.555c0.161-0.19,0.367-0.269,0.614-0.237
		C130.204,264.377,130.536,264.498,130.934,264.495z"/>
	<path fill="#BBB5AC" d="M136.092,273.779c-2.334-0.42-4.824,0.558-7.058-0.778c2.066-0.481,4.136,0.236,6.207-0.007
		C135.764,272.933,135.985,273.324,136.092,273.779z"/>
	<path fill="#C2C1BD" d="M142.796,262.691c-1.982,0.254-4.013,0.351-5.635,1.756c-1.665-0.037-3.329-0.072-4.993-0.109
		c-0.539-0.012-0.729-0.396-0.872-0.828c0.094-0.923,0.21-1.842,0.657-2.678c2.807,0.239,5.608,0.542,8.422,0.686
		C141.422,261.572,142.192,261.88,142.796,262.691z"/>
	<path fill="#B6B2AA" d="M130.006,264.002c-0.116,0.067-0.236,0.124-0.362,0.172c-1.297-0.002-1.219-0.834-1.039-1.726
		c0.188-1.173,0.527-2.178,2.06-1.876C130.375,261.703,129.259,262.674,130.006,264.002z"/>
	<path fill="#8F8D7C" d="M133.973,253.398c0.354-0.731-0.547-1.906,0.717-2.201c0.223-0.052,0.707,0.167,0.75,0.342
		C135.726,252.684,134.372,252.661,133.973,253.398z"/>
	<path fill="#888472" d="M128.605,262.449c0.009,0.778,0.223,1.434,1.04,1.725c-0.097,0.874-0.193,1.748-0.291,2.621
		c-0.695,2.544-1.392,5.088-2.089,7.632c-1.043-1.367-1.229-2.839-0.731-4.488C127.279,267.458,127.92,264.947,128.605,262.449z"/>
	<path fill="#AD8F5B" d="M115.478,274.428c0.045-0.8,1.867-0.043,1.25-1.424c1.757,0.547,3.604,0.902,4.972,2.296
		c0.46,0.629,0.223,1.035-0.424,1.306C119.221,276.209,117.185,275.755,115.478,274.428z"/>
	<path fill="#70460B" d="M121.276,276.606c0.271-0.393,0.551-0.784,0.424-1.306c0.747,0.231,1.496,0.464,2.245,0.695
		c0.151,0.122,0.303,0.243,0.453,0.364c0.637,0.595,2.376,0.477,2,1.456c-0.531,1.386-1.697,0.043-2.543-0.176
		C122.971,277.41,121.987,277.313,121.276,276.606z"/>
	<path fill="#9D9588" d="M130.702,266.107c0.623,0.159,1.245,0.319,2.102,0.538c-0.869,1.13-1.807,1.816-2.895,2.33
		C130.048,267.984,130.154,266.984,130.702,266.107z"/>
	<path fill="#9B741F" d="M146.288,250.642c-1.1-0.45-2.873,0.502-3.204-1.542c1.167-0.175,2.333-0.304,3.485,0.083
		c0.564-0.15,0.893,0.14,1.125,0.606C147.756,250.946,147.052,250.845,146.288,250.642z"/>
	<path fill="#8B640F" d="M147.798,242.072c0.032,0.433,0.063,0.866,0.096,1.3c-0.101,0.311-0.254,0.338-0.457,0.082
		c-0.593-0.385-1.894-0.272-1.546-1.317C146.15,241.358,147.134,241.926,147.798,242.072z"/>
	<path fill="#9AA4A4" d="M147.438,243.454c0.153-0.027,0.306-0.054,0.457-0.082c0.144,1.208,0.177,2.411-0.174,3.595
		c-0.729,0.053-0.855-0.275-0.701-0.94C147.216,245.182,147.304,244.312,147.438,243.454z"/>
	<path fill="#A7B0AA" d="M147.447,249.525c-0.292-0.114-0.584-0.228-0.877-0.342c0-0.81-0.034-1.641,1.109-1.706
		c0.056,0.543,0.112,1.085,0.169,1.628C147.8,249.327,147.662,249.463,147.447,249.525z"/>
	<path fill="#9D6F18" d="M148.951,252.548c-0.313,0.014-0.625,0.028-0.938,0.042c-0.598-0.978-0.432-1.978-0.094-2.985
		c0.688-1.064,0.188-2.325,0.577-3.457c0.165-0.479,0.134-0.973,0.789-1.02c0.438,1.75-0.961,3.636,0.398,5.316
		C150.686,251.58,149.034,251.792,148.951,252.548z"/>
	<path fill="#524A37" d="M147.919,249.606c0.032,0.995,0.063,1.99,0.095,2.985c-0.215,0.01-0.429,0.021-0.644,0.031
		c0.025-0.872-0.379-1.508-1.083-1.98c0.712-0.034,1.298-0.199,1.159-1.116c0.135-0.141,0.269-0.28,0.401-0.42
		C147.872,249.273,147.896,249.439,147.919,249.606z"/>
	<path fill="#9E9A96" d="M130.898,250.923c-0.352,2.487-1.041,4.874-2.143,7.136c0.147-2.715,1.221-5.188,2.021-7.732
		C131.03,250.482,131.071,250.681,130.898,250.923z"/>
	<path fill="#A09D98" d="M130.898,250.923c-0.04-0.198-0.08-0.396-0.121-0.596c0.525-1.466,0.437-3.138,1.487-4.426
		C132.193,247.68,131.783,249.366,130.898,250.923z"/>
	<path fill="#A19D94" d="M128.085,261.575c-0.146-0.13-0.29-0.259-0.436-0.389c0.264-1.089,0.294-2.26,1.116-3.15
		C129.097,259.323,128.26,260.385,128.085,261.575z"/>
</g>
</svg>
